<?xml version="1.0" encoding="UTF-8"?>
<!DOCTYPE svg PUBLIC "-//W3C//DTD SVG 1.1//EN" "http://www.w3.org/Graphics/SVG/1.1/DTD/svg11.dtd">
<!-- Creator: CorelDRAW -->
<svg xmlns="http://www.w3.org/2000/svg" xml:space="preserve" width="558px" height="558px" version="1.1" style="shape-rendering:geometricPrecision; text-rendering:geometricPrecision; image-rendering:optimizeQuality; fill-rule:evenodd; clip-rule:evenodd"
viewBox="0 0 292.26 292.26"
 xmlns:xlink="http://www.w3.org/1999/xlink"
 xmlns:xodm="http://www.corel.com/coreldraw/odm/2003">
 <defs>
  <style type="text/css">
   <![CDATA[
    .fil0 {fill:#525252;fill-rule:nonzero}
   ]]>
  </style>
 </defs>
 <g id="Слой_x0020_1">
  <metadata id="CorelCorpID_0Corel-Layer"/>
  <path class="fil0" d="M146.13 21.81c-34.33,0 -65.41,13.91 -87.91,36.41 -22.5,22.5 -36.41,53.58 -36.41,87.91 0,34.33 13.91,65.42 36.41,87.91 22.5,22.5 53.58,36.42 87.91,36.42 34.33,0 65.42,-13.92 87.91,-36.42 22.5,-22.49 36.42,-53.58 36.42,-87.91 0,-34.33 -13.92,-65.41 -36.42,-87.91 -22.49,-22.5 -53.58,-36.41 -87.91,-36.41zm13.66 63.95c4.26,-4.26 11.16,-4.26 15.42,0 4.25,4.26 4.25,11.16 0,15.42l-44.96 44.95 44.96 44.96c4.25,4.25 4.25,11.16 0,15.42 -4.26,4.25 -11.16,4.25 -15.42,0l-52.67 -52.67c-4.25,-4.26 -4.25,-11.16 0,-15.42l52.67 -52.66zm-116.99 -42.96c26.45,-26.44 62.98,-42.8 103.33,-42.8 40.35,0 76.89,16.36 103.33,42.8 26.45,26.45 42.8,62.98 42.8,103.33 0,40.35 -16.35,76.89 -42.8,103.33 -26.44,26.45 -62.98,42.8 -103.33,42.8 -40.35,0 -76.88,-16.35 -103.33,-42.8 -26.44,-26.44 -42.8,-62.98 -42.8,-103.33 0,-40.35 16.36,-76.88 42.8,-103.33z"/>
 </g>
</svg>
