<?xml version="1.0" encoding="UTF-8"?>
<!DOCTYPE svg PUBLIC "-//W3C//DTD SVG 1.1//EN" "http://www.w3.org/Graphics/SVG/1.1/DTD/svg11.dtd">
<!-- Creator: CorelDRAW -->
<svg xmlns="http://www.w3.org/2000/svg" xml:space="preserve" width="558px" height="558px" version="1.1" style="shape-rendering:geometricPrecision; text-rendering:geometricPrecision; image-rendering:optimizeQuality; fill-rule:evenodd; clip-rule:evenodd"
viewBox="0 0 1007.54 1007.54"
 xmlns:xlink="http://www.w3.org/1999/xlink"
 xmlns:xodm="http://www.corel.com/coreldraw/odm/2003">
 <defs>
  <style type="text/css">
   <![CDATA[
    .fil0 {fill:#22A9E1;fill-rule:nonzero}
   ]]>
  </style>
 </defs>
 <g id="Слой_x0020_1">
  <metadata id="CorelCorpID_0Corel-Layer"/>
  <path class="fil0" d="M503.77 0c139.1,0 265.05,56.39 356.22,147.55 91.16,91.17 147.55,217.12 147.55,356.22 0,139.1 -56.39,265.05 -147.55,356.22 -91.17,91.16 -217.12,147.55 -356.22,147.55 -139.1,0 -265.05,-56.39 -356.22,-147.55 -91.16,-91.17 -147.55,-217.12 -147.55,-356.22 0,-139.1 56.39,-265.05 147.55,-356.22 91.17,-91.16 217.12,-147.55 356.22,-147.55zm-100.23 348.8c-14.68,-14.68 -14.68,-38.48 0,-53.16 14.67,-14.67 38.47,-14.67 53.15,0l181.55 181.55c14.68,14.68 14.68,38.48 0,53.16l-181.55 181.55c-14.68,14.67 -38.48,14.67 -53.15,0 -14.68,-14.68 -14.68,-38.48 0,-53.16l154.97 -154.97 -154.97 -154.97zm403.29 -148.09c-77.55,-77.56 -184.7,-125.53 -303.06,-125.53 -118.36,0 -225.51,47.97 -303.06,125.53 -77.56,77.55 -125.53,184.7 -125.53,303.06 0,118.36 47.97,225.51 125.53,303.06 77.55,77.56 184.7,125.53 303.06,125.53 118.36,0 225.51,-47.97 303.06,-125.53 77.56,-77.55 125.53,-184.7 125.53,-303.06 0,-118.36 -47.97,-225.51 -125.53,-303.06z"/>
 </g>
</svg>
