<svg id="svg" version="1.1" xmlns="http://www.w3.org/2000/svg" xmlns:xlink="http://www.w3.org/1999/xlink" width="400" height="58.31049090456018" viewBox="0, 0, 400,58.31049090456018"><g id="svgg"><path id="path0" d="M123.667 3.836 C 119.858 4.369,116.877 6.261,115.531 9.000 L 114.917 10.250 114.917 12.500 C 114.918 17.066,116.970 19.076,122.917 20.338 C 129.927 21.826,130.667 22.190,130.667 24.153 C 130.667 27.770,122.787 28.224,117.169 24.931 C 116.595 24.595,116.093 24.352,116.053 24.391 C 115.944 24.501,114.333 28.864,114.333 29.050 C 114.333 29.693,117.893 31.233,120.833 31.863 C 130.678 33.970,138.535 28.824,136.596 21.539 C 135.736 18.308,133.395 16.884,126.833 15.601 C 121.758 14.609,120.695 13.891,120.962 11.635 C 121.349 8.353,128.871 7.861,133.270 10.829 C 134.264 11.500,134.135 11.618,135.136 9.125 L 136.023 6.917 135.425 6.396 C 133.174 4.437,127.776 3.262,123.667 3.836 M281.143 3.840 C 273.386 4.745,268.702 11.941,270.081 20.833 C 271.206 28.092,276.089 32.240,283.500 32.235 C 291.376 32.229,296.403 27.580,297.157 19.604 C 298.126 9.345,291.325 2.651,281.143 3.840 M365.083 3.769 C 360.806 4.218,357.117 6.363,355.086 9.583 C 351.254 15.660,352.520 25.198,357.706 29.317 C 362.256 32.931,370.393 33.300,375.198 30.110 C 376.585 29.190,376.566 29.344,375.597 26.917 C 375.121 25.725,374.682 24.618,374.620 24.456 C 374.520 24.193,374.423 24.223,373.713 24.731 C 366.139 30.149,357.979 25.016,359.570 15.833 C 360.693 9.357,367.767 6.949,373.524 11.085 C 374.595 11.854,374.457 11.979,375.523 9.288 C 376.591 6.590,376.613 6.765,375.097 5.776 C 372.709 4.219,368.617 3.398,365.083 3.769 M150.275 4.625 C 149.789 5.578,137.833 31.623,137.833 31.730 C 137.833 31.791,139.239 31.820,140.957 31.795 L 144.081 31.750 145.343 28.833 L 146.605 25.917 153.149 25.917 L 159.694 25.917 160.957 28.875 L 162.221 31.833 165.360 31.833 C 167.087 31.833,168.500 31.784,168.500 31.724 C 168.500 31.665,168.319 31.233,168.098 30.766 C 167.878 30.299,166.631 27.629,165.329 24.833 C 164.026 22.037,162.662 19.112,162.298 18.333 C 161.933 17.554,161.274 16.129,160.833 15.167 C 160.392 14.204,159.537 12.377,158.932 11.107 C 158.328 9.836,157.833 8.776,157.833 8.750 C 157.833 8.724,157.348 7.682,156.756 6.435 L 155.678 4.167 153.093 4.167 L 150.509 4.167 150.275 4.625 M170.833 18.000 L 170.833 31.833 174.000 31.833 L 177.167 31.833 177.167 18.000 L 177.167 4.167 174.000 4.167 L 170.833 4.167 170.833 18.000 M182.667 18.000 L 182.667 31.833 185.750 31.833 L 188.833 31.833 188.833 26.083 L 188.833 20.333 194.750 20.333 L 200.667 20.333 200.667 18.000 L 200.667 15.667 194.750 15.667 L 188.833 15.667 188.833 12.333 L 188.833 9.000 195.167 9.000 L 201.500 9.000 201.500 6.583 L 201.500 4.167 192.083 4.167 L 182.667 4.167 182.667 18.000 M216.500 17.990 L 216.500 31.833 219.583 31.833 L 222.667 31.833 222.667 26.518 L 222.667 21.202 227.208 21.118 C 232.231 21.025,232.774 20.944,234.772 19.990 C 240.089 17.451,240.589 8.861,235.607 5.641 C 233.495 4.276,233.440 4.269,224.458 4.204 L 216.500 4.146 216.500 17.990 M243.000 17.988 L 243.000 31.833 246.167 31.833 L 249.333 31.833 249.333 26.391 L 249.333 20.949 251.542 21.054 C 254.459 21.193,256.167 21.848,256.167 22.827 C 256.167 22.903,256.921 24.527,257.843 26.437 C 258.765 28.347,259.718 30.342,259.961 30.871 L 260.403 31.833 263.869 31.833 L 267.334 31.833 264.995 27.157 C 262.588 22.345,261.955 21.387,260.756 20.742 C 259.997 20.333,260.001 20.324,261.116 19.841 C 266.628 17.454,267.023 8.512,261.750 5.505 C 259.587 4.272,259.608 4.274,250.875 4.205 L 243.000 4.143 243.000 17.988 M303.833 18.000 L 303.833 31.833 307.000 31.833 L 310.167 31.833 310.167 26.083 L 310.167 20.333 316.000 20.333 L 321.833 20.333 321.833 18.000 L 321.833 15.667 316.000 15.667 L 310.167 15.667 310.167 12.333 L 310.167 9.000 316.500 9.000 L 322.833 9.000 322.833 6.583 L 322.833 4.167 313.333 4.167 L 303.833 4.167 303.833 18.000 M333.778 4.621 C 333.288 5.583,321.333 31.627,321.333 31.731 C 321.333 31.791,322.730 31.820,324.437 31.795 L 327.541 31.750 328.833 28.833 L 330.126 25.917 336.660 25.917 L 343.194 25.917 344.457 28.875 L 345.721 31.833 348.860 31.833 C 350.587 31.833,352.000 31.803,352.000 31.765 C 352.000 31.656,350.465 28.291,349.266 25.774 C 348.661 24.503,348.167 23.444,348.167 23.419 C 348.167 23.395,347.747 22.489,347.234 21.405 C 346.721 20.322,345.796 18.344,345.178 17.010 C 344.560 15.675,343.703 13.833,343.272 12.917 C 342.842 12.000,341.755 9.675,340.857 7.750 L 339.224 4.250 336.618 4.204 L 334.013 4.158 333.778 4.621 M380.667 18.000 L 380.667 31.833 390.333 31.833 L 400.000 31.833 400.000 29.417 L 400.000 27.000 393.333 27.000 L 386.667 27.000 386.667 23.583 L 386.667 20.167 392.833 20.167 L 399.000 20.167 399.000 17.750 L 399.000 15.333 392.833 15.333 L 386.667 15.333 386.667 12.167 L 386.667 9.000 393.333 9.000 L 400.000 9.000 400.000 6.583 L 400.000 4.167 390.333 4.167 L 380.667 4.167 380.667 18.000 M230.710 9.262 C 233.582 10.241,233.820 14.382,231.083 15.750 L 230.083 16.250 226.375 16.310 L 222.667 16.370 222.667 12.685 L 222.667 9.000 226.304 9.000 C 229.173 9.000,230.103 9.055,230.710 9.262 M257.542 9.554 C 260.097 10.809,260.153 14.531,257.637 15.925 L 256.750 16.417 253.042 16.470 L 249.333 16.523 249.333 12.750 L 249.333 8.977 252.958 9.030 C 256.549 9.083,256.592 9.088,257.542 9.554 M286.509 9.529 C 291.633 11.872,292.275 22.561,287.490 25.855 C 285.174 27.450,281.441 27.385,279.269 25.711 C 275.188 22.568,275.496 12.073,279.733 9.882 C 281.709 8.860,284.704 8.704,286.509 9.529 M154.963 14.750 C 155.880 16.858,156.860 19.127,157.141 19.792 L 157.652 21.000 153.180 21.000 L 148.709 21.000 150.074 17.792 C 150.826 16.027,151.810 13.707,152.262 12.636 C 152.714 11.565,153.131 10.740,153.190 10.803 C 153.248 10.865,154.046 12.642,154.963 14.750 M337.800 13.250 C 338.351 14.533,339.229 16.558,339.752 17.750 C 340.275 18.942,340.808 20.160,340.937 20.458 L 341.171 21.000 336.690 21.000 L 332.208 21.000 334.396 15.847 C 335.599 13.012,336.632 10.743,336.691 10.805 C 336.750 10.866,337.249 11.967,337.800 13.250 M12.249 20.667 L 3.430 29.488 9.340 35.336 C 12.590 38.552,16.582 42.511,18.211 44.133 L 21.171 47.083 20.232 45.005 C 15.573 34.698,15.701 23.175,20.585 13.139 C 20.905 12.482,21.145 11.923,21.118 11.896 C 21.091 11.869,17.100 15.816,12.249 20.667 M88.226 13.667 C 92.983 23.769,92.786 36.763,87.730 46.272 C 87.517 46.672,87.397 47.000,87.464 47.000 C 87.530 47.000,91.522 43.062,96.334 38.250 L 105.083 29.500 96.203 20.625 L 87.323 11.750 88.226 13.667 M114.334 46.792 C 114.335 49.315,115.975 50.550,118.292 49.770 C 118.657 49.647,118.667 49.674,118.667 50.822 L 118.667 52.000 119.500 52.000 L 120.333 52.000 120.333 48.667 L 120.333 45.333 119.506 45.333 L 118.680 45.333 118.631 46.792 L 118.583 48.250 117.981 48.399 C 117.373 48.549,116.790 48.470,116.335 48.175 C 116.158 48.061,116.069 47.626,116.026 46.674 L 115.965 45.333 115.149 45.333 L 114.333 45.333 114.334 46.792 M123.231 45.651 C 121.677 46.599,121.212 49.451,122.383 50.857 C 123.329 51.993,125.569 52.378,127.125 51.671 C 127.942 51.300,127.910 51.371,127.571 50.692 C 127.264 50.077,127.358 50.104,126.609 50.417 C 125.218 50.998,123.500 50.437,123.500 49.402 L 123.500 49.000 125.667 49.000 L 127.833 49.000 127.833 48.248 C 127.833 45.912,125.221 44.437,123.231 45.651 M129.975 47.405 C 129.910 49.717,129.601 50.441,128.543 50.762 C 128.522 50.769,128.622 51.076,128.767 51.444 C 129.481 53.261,131.429 50.993,131.619 48.125 L 131.716 46.667 132.691 46.667 L 133.667 46.667 133.667 49.333 L 133.667 52.000 134.500 52.000 L 135.333 52.000 135.333 48.667 L 135.333 45.333 132.684 45.333 L 130.034 45.333 129.975 47.405 M137.000 48.667 L 137.000 52.000 137.833 52.000 L 138.667 52.000 138.667 50.583 L 138.667 49.167 139.146 49.167 C 139.571 49.167,139.660 49.263,139.937 50.025 C 140.816 52.439,144.750 52.755,145.914 50.506 C 146.270 49.817,146.400 48.366,146.180 47.549 C 145.400 44.654,141.090 44.419,139.941 47.208 C 139.723 47.738,139.606 47.833,139.175 47.833 L 138.667 47.833 138.667 46.583 L 138.667 45.333 137.833 45.333 L 137.000 45.333 137.000 48.667 M148.889 45.752 C 146.852 46.974,147.020 50.517,149.171 51.700 C 150.568 52.469,153.323 51.832,152.971 50.822 C 152.743 50.168,152.600 50.107,152.013 50.410 C 150.864 51.004,149.673 50.532,149.316 49.340 C 148.742 47.424,150.293 46.034,152.013 46.923 C 152.603 47.228,152.743 47.166,152.977 46.494 C 153.373 45.358,150.437 44.825,148.889 45.752 M153.532 46.038 L 153.583 46.750 154.708 46.799 L 155.833 46.849 155.833 49.424 L 155.833 52.000 156.667 52.000 L 157.500 52.000 157.500 49.424 L 157.500 46.849 158.625 46.799 L 159.750 46.750 159.750 46.083 L 159.750 45.417 156.615 45.371 L 153.480 45.326 153.532 46.038 M160.500 48.667 L 160.500 52.000 161.417 52.000 L 162.333 52.000 162.333 50.583 L 162.333 49.167 163.750 49.167 L 165.167 49.167 165.167 50.583 L 165.167 52.000 166.000 52.000 L 166.833 52.000 166.833 48.667 L 166.833 45.333 166.000 45.333 L 165.167 45.333 165.167 46.583 L 165.167 47.833 163.750 47.833 L 162.333 47.833 162.333 46.583 L 162.333 45.333 161.417 45.333 L 160.500 45.333 160.500 48.667 M169.897 45.573 C 167.704 46.527,167.667 50.561,169.841 51.670 C 172.272 52.911,174.833 51.326,174.833 48.582 C 174.833 46.027,172.342 44.508,169.897 45.573 M182.308 47.489 C 182.248 49.724,181.875 50.667,181.052 50.667 C 180.806 50.667,180.757 50.933,180.978 51.070 C 181.058 51.119,181.168 51.382,181.222 51.653 C 181.313 52.108,181.359 52.136,181.805 52.008 C 183.104 51.636,183.824 50.337,183.958 48.125 L 184.046 46.667 185.023 46.667 L 186.000 46.667 186.000 49.333 L 186.000 52.000 186.833 52.000 L 187.667 52.000 187.667 48.667 L 187.667 45.333 185.017 45.333 L 182.367 45.333 182.308 47.489 M189.333 48.667 L 189.333 52.000 190.055 52.000 L 190.778 52.000 192.347 49.915 L 193.917 47.831 193.963 49.924 L 194.010 52.018 194.797 51.967 L 195.583 51.917 195.629 48.625 L 195.674 45.333 194.923 45.333 L 194.173 45.333 192.961 46.958 C 192.295 47.852,191.581 48.770,191.375 48.998 L 191.000 49.413 191.000 47.373 L 191.000 45.333 190.167 45.333 L 189.333 45.333 189.333 48.667 M197.333 48.667 L 197.333 52.000 200.083 52.000 L 202.833 52.000 202.833 52.833 L 202.833 53.667 203.583 53.667 L 204.333 53.667 204.333 52.083 L 204.333 50.500 203.833 50.500 L 203.333 50.500 203.333 47.908 L 203.333 45.316 202.458 45.366 L 201.583 45.417 201.537 47.958 L 201.491 50.500 200.246 50.500 L 199.000 50.500 199.000 47.917 L 199.000 45.333 198.167 45.333 L 197.333 45.333 197.333 48.667 M206.561 45.769 C 204.573 47.059,204.735 50.565,206.835 51.691 C 207.896 52.260,210.664 52.012,211.098 51.309 C 211.223 51.108,210.796 50.165,210.584 50.173 C 210.492 50.176,210.229 50.286,210.000 50.417 C 208.838 51.081,206.833 50.403,206.833 49.346 C 206.833 49.013,206.917 49.000,209.071 49.000 L 211.309 49.000 211.217 48.042 C 210.985 45.633,208.580 44.460,206.561 45.769 M212.667 48.667 L 212.667 52.000 214.646 52.000 C 217.074 52.000,217.490 51.922,218.195 51.334 C 218.959 50.695,219.003 49.522,218.285 48.904 L 217.820 48.505 218.183 48.013 C 218.656 47.374,218.549 46.247,217.975 45.815 C 217.440 45.411,216.904 45.333,214.646 45.333 L 212.667 45.333 212.667 48.667 M220.933 45.841 C 218.046 48.376,220.912 53.627,224.105 51.653 L 224.667 51.306 224.667 51.653 C 224.667 51.962,224.766 52.000,225.583 52.000 L 226.500 52.000 226.500 48.667 L 226.500 45.333 225.667 45.333 C 224.874 45.333,224.833 45.355,224.833 45.779 L 224.833 46.225 224.406 45.823 C 223.660 45.122,221.741 45.132,220.933 45.841 M229.040 45.663 C 227.709 46.267,227.559 48.160,228.775 48.994 C 229.272 49.334,229.325 49.427,229.114 49.582 C 228.876 49.755,227.667 51.696,227.667 51.903 C 227.667 51.956,228.074 52.000,228.571 52.000 L 229.476 52.000 230.084 50.999 C 231.209 49.147,232.167 49.070,232.167 50.833 L 232.167 52.000 233.000 52.000 L 233.833 52.000 233.833 48.667 L 233.833 45.333 231.792 45.337 C 230.135 45.340,229.616 45.401,229.040 45.663 M238.333 45.484 C 238.333 45.566,238.857 46.260,239.497 47.025 C 240.901 48.704,240.903 48.332,239.475 50.104 C 238.819 50.918,238.210 51.677,238.121 51.792 C 237.995 51.954,238.196 51.999,239.021 51.996 L 240.083 51.993 240.744 51.070 C 241.744 49.676,241.699 49.680,242.609 50.909 L 243.417 52.000 244.458 52.000 C 245.659 52.000,245.627 52.031,245.079 51.401 C 244.847 51.135,244.240 50.374,243.729 49.710 L 242.801 48.503 243.927 47.127 C 244.547 46.370,245.126 45.656,245.214 45.542 C 245.338 45.380,245.137 45.335,244.312 45.340 L 243.250 45.347 242.516 46.331 L 241.782 47.315 241.016 46.332 L 240.250 45.348 239.292 45.341 C 238.765 45.337,238.333 45.401,238.333 45.484 M246.167 48.667 L 246.167 52.000 246.901 52.000 L 247.635 52.000 249.193 49.881 L 250.750 47.761 250.797 49.881 L 250.843 52.000 251.588 52.000 L 252.333 52.000 252.333 48.667 L 252.333 45.333 251.670 45.333 C 251.015 45.333,250.986 45.360,249.420 47.443 L 247.833 49.552 247.833 47.443 L 247.833 45.333 247.000 45.333 L 246.167 45.333 246.167 48.667 M254.062 45.708 C 254.117 45.915,254.163 48.015,254.164 50.375 L 254.167 54.667 255.083 54.667 L 256.000 54.667 256.000 52.974 C 256.000 51.288,256.001 51.283,256.336 51.586 C 256.691 51.907,258.179 52.117,258.872 51.943 C 261.099 51.384,261.546 47.059,259.517 45.710 C 258.670 45.147,257.050 45.172,256.352 45.760 L 255.845 46.187 255.738 45.760 C 255.641 45.373,255.552 45.333,254.796 45.333 C 254.012 45.333,253.967 45.356,254.062 45.708 M261.411 45.648 C 261.465 45.820,262.072 47.264,262.759 48.855 L 264.008 51.748 263.716 52.291 C 263.511 52.672,263.170 52.938,262.569 53.187 L 261.713 53.542 261.877 54.188 C 261.967 54.543,262.125 54.833,262.229 54.832 C 262.813 54.830,263.771 54.405,264.328 53.902 C 264.966 53.326,265.087 53.123,265.912 51.250 C 266.154 50.700,266.419 50.100,266.500 49.917 C 266.582 49.733,266.811 49.208,267.010 48.750 C 267.208 48.292,267.558 47.504,267.787 47.000 C 268.599 45.212,268.613 45.333,267.596 45.333 L 266.701 45.333 265.801 47.582 L 264.902 49.831 264.012 47.582 L 263.122 45.333 262.216 45.333 C 261.405 45.333,261.321 45.366,261.411 45.648 M269.333 50.000 L 269.333 54.667 270.167 54.667 L 271.000 54.667 271.000 52.888 L 271.000 51.109 271.422 51.505 C 272.559 52.573,274.985 51.970,275.676 50.447 C 277.102 47.307,273.925 43.735,271.513 45.765 L 271.000 46.196 271.000 45.765 C 271.000 45.358,270.952 45.333,270.167 45.333 L 269.333 45.333 269.333 50.000 M277.500 48.667 L 277.500 52.000 278.333 52.000 L 279.167 52.000 279.167 49.417 L 279.167 46.833 280.750 46.833 L 282.333 46.833 282.333 46.083 L 282.333 45.333 279.917 45.333 L 277.500 45.333 277.500 48.667 M283.333 48.667 L 283.333 52.000 284.067 52.000 L 284.800 52.000 286.358 49.909 L 287.917 47.818 287.963 49.909 L 288.010 52.000 288.838 52.000 L 289.667 52.000 289.667 48.667 L 289.667 45.333 288.920 45.333 L 288.173 45.333 286.586 47.443 L 285.000 49.552 285.000 47.443 L 285.000 45.333 284.167 45.333 L 283.333 45.333 283.333 48.667 M292.385 45.517 C 290.912 45.943,290.592 48.364,291.917 49.072 C 292.100 49.170,292.276 49.264,292.308 49.281 C 292.341 49.298,292.184 49.560,291.961 49.864 C 291.737 50.168,291.352 50.773,291.104 51.208 L 290.653 52.000 291.656 52.000 C 292.654 52.000,292.662 51.996,292.989 51.356 C 293.583 50.191,294.134 49.667,294.765 49.667 L 295.333 49.667 295.333 50.833 L 295.333 52.000 296.083 52.000 L 296.833 52.000 296.833 48.667 L 296.833 45.333 294.875 45.348 C 293.798 45.357,292.678 45.433,292.385 45.517 M302.167 48.667 L 302.167 52.000 302.875 51.992 L 303.583 51.985 305.125 49.870 L 306.667 47.756 306.667 49.878 L 306.667 52.000 307.500 52.000 L 308.333 52.000 308.333 48.667 L 308.333 45.333 307.597 45.333 L 306.861 45.333 305.306 47.446 L 303.750 49.559 303.703 47.446 L 303.657 45.333 302.912 45.333 L 302.167 45.333 302.167 48.667 M314.863 45.605 C 312.682 46.713,312.694 50.497,314.883 51.670 C 316.466 52.518,319.196 51.835,318.725 50.708 C 318.468 50.093,318.390 50.070,317.727 50.416 C 316.173 51.226,314.831 50.114,315.047 48.194 C 315.201 46.833,316.521 46.238,317.857 46.929 C 318.136 47.073,318.385 47.167,318.411 47.137 C 319.371 46.027,318.824 45.442,316.758 45.370 C 315.757 45.336,315.276 45.395,314.863 45.605 M319.333 46.083 L 319.333 46.833 320.417 46.833 L 321.500 46.833 321.500 49.417 L 321.500 52.000 322.417 52.000 L 323.333 52.000 323.333 49.417 L 323.333 46.833 324.417 46.833 L 325.500 46.833 325.500 46.083 L 325.500 45.333 322.417 45.333 L 319.333 45.333 319.333 46.083 M327.583 45.643 C 324.580 47.499,325.812 51.917,329.333 51.917 C 332.428 51.917,333.905 48.467,331.784 46.195 C 330.926 45.276,328.660 44.979,327.583 45.643 M334.000 48.658 L 334.000 52.000 334.828 52.000 L 335.656 52.000 335.703 50.125 L 335.750 48.250 336.491 49.542 C 337.531 51.352,337.837 51.341,338.942 49.458 L 339.750 48.083 339.797 50.042 L 339.844 52.000 340.589 52.000 L 341.333 52.000 341.333 48.667 L 341.333 45.333 340.612 45.333 L 339.890 45.333 338.841 47.167 C 338.264 48.175,337.745 48.997,337.687 48.994 C 337.630 48.991,337.126 48.184,336.568 47.202 L 335.552 45.417 334.776 45.366 L 334.000 45.315 334.000 48.658 M344.093 45.659 C 340.839 47.804,343.769 53.715,347.075 51.672 L 347.667 51.306 347.667 51.653 C 347.667 51.962,347.766 52.000,348.583 52.000 L 349.500 52.000 349.500 48.667 L 349.500 45.333 348.667 45.333 C 347.892 45.333,347.833 45.362,347.833 45.745 L 347.833 46.157 347.227 45.745 C 346.436 45.208,344.843 45.164,344.093 45.659 M350.333 46.083 L 350.333 46.833 351.417 46.833 L 352.500 46.833 352.500 49.417 L 352.500 52.000 353.417 52.000 L 354.333 52.000 354.333 49.417 L 354.333 46.833 355.417 46.833 L 356.500 46.833 356.500 46.083 L 356.500 45.333 353.417 45.333 L 350.333 45.333 350.333 46.083 M358.583 45.643 C 355.580 47.499,356.812 51.917,360.333 51.917 C 363.428 51.917,364.905 48.467,362.784 46.195 C 361.926 45.276,359.660 44.979,358.583 45.643 M365.667 47.255 C 365.667 49.404,365.471 50.115,364.776 50.486 C 364.263 50.761,364.252 50.817,364.575 51.588 C 365.267 53.245,367.140 50.867,367.296 48.133 L 367.380 46.667 368.356 46.667 L 369.333 46.667 369.333 49.333 L 369.333 52.000 370.167 52.000 L 371.000 52.000 371.000 48.667 L 371.000 45.333 368.333 45.333 L 365.667 45.333 365.667 47.255 M374.003 45.679 C 371.997 46.933,371.930 50.099,373.880 51.516 C 376.689 53.559,380.456 50.002,378.786 46.884 C 378.015 45.445,375.423 44.792,374.003 45.679 M380.500 48.667 L 380.500 52.000 381.333 52.000 L 382.167 52.000 382.167 49.417 L 382.167 46.833 383.833 46.833 L 385.500 46.833 385.500 46.083 L 385.500 45.333 383.000 45.333 L 380.500 45.333 380.500 48.667 M386.500 48.667 L 386.500 52.000 387.208 51.999 L 387.917 51.997 389.500 49.884 L 391.083 47.772 391.130 49.886 L 391.177 52.000 391.922 52.000 L 392.667 52.000 392.667 48.667 L 392.667 45.333 391.958 45.341 L 391.250 45.349 389.750 47.359 L 388.250 49.368 388.203 47.351 L 388.156 45.333 387.328 45.333 L 386.500 45.333 386.500 48.667 M395.403 45.570 C 393.898 46.225,393.797 49.167,395.279 49.167 C 395.568 49.167,395.561 49.409,395.264 49.655 C 395.048 49.834,393.833 51.764,393.833 51.929 C 393.833 51.968,394.265 52.000,394.792 51.999 L 395.750 51.999 396.250 51.065 C 396.836 49.971,397.207 49.667,397.954 49.667 L 398.500 49.667 398.500 50.833 L 398.500 52.000 399.250 52.000 L 400.000 52.000 400.000 48.667 L 400.000 45.333 397.958 45.340 C 396.629 45.344,395.737 45.425,395.403 45.570 M125.924 46.909 C 126.756 47.740,126.516 48.000,124.917 48.000 C 123.315 48.000,123.119 47.794,123.909 46.941 C 124.456 46.350,125.351 46.336,125.924 46.909 M209.281 46.862 C 210.137 47.666,209.834 48.000,208.250 48.000 C 206.650 48.000,206.533 47.883,207.265 47.013 C 207.805 46.371,208.688 46.305,209.281 46.862 M216.738 46.762 C 217.422 47.446,216.826 48.000,215.405 48.000 L 214.333 48.000 214.333 47.250 L 214.333 46.500 215.405 46.500 C 216.157 46.500,216.554 46.578,216.738 46.762 M232.167 47.500 L 232.167 48.500 231.322 48.500 C 229.701 48.500,229.050 47.768,229.909 46.909 C 230.245 46.573,230.483 46.500,231.242 46.500 L 232.167 46.500 232.167 47.500 M295.333 47.500 L 295.333 48.500 294.511 48.500 C 293.079 48.500,292.474 48.037,292.753 47.156 C 292.896 46.707,293.381 46.524,294.458 46.511 L 295.333 46.500 295.333 47.500 M398.500 47.500 L 398.500 48.500 397.537 48.500 C 396.418 48.500,395.833 48.182,395.833 47.574 C 395.833 46.850,396.376 46.500,397.500 46.500 L 398.500 46.500 398.500 47.500 M143.980 46.958 C 144.718 47.574,144.703 49.794,143.956 50.371 C 142.615 51.407,141.048 49.988,141.409 48.065 C 141.641 46.828,143.080 46.208,143.980 46.958 M172.450 46.917 C 172.953 47.269,173.224 48.205,173.087 49.117 C 172.726 51.522,170.000 51.125,170.000 48.667 C 170.000 47.002,171.273 46.093,172.450 46.917 M224.235 47.179 C 225.241 48.374,224.576 50.667,223.224 50.667 C 222.118 50.667,221.500 49.948,221.500 48.664 C 221.500 46.838,223.180 45.926,224.235 47.179 M258.490 46.990 C 259.704 48.204,259.065 50.667,257.537 50.667 C 256.341 50.667,255.672 49.612,255.924 48.121 C 256.146 46.810,257.648 46.148,258.490 46.990 M273.664 46.964 C 274.077 47.298,274.312 48.277,274.203 49.208 C 273.991 51.028,271.636 51.243,271.163 49.485 C 270.617 47.458,272.246 45.816,273.664 46.964 M330.424 47.076 C 331.513 48.164,330.785 50.670,329.383 50.664 C 328.283 50.660,327.833 50.052,327.833 48.571 C 327.833 46.819,329.313 45.965,330.424 47.076 M347.179 47.097 C 348.243 48.229,347.527 50.667,346.130 50.667 C 344.989 50.667,344.314 49.544,344.556 48.050 C 344.775 46.706,346.294 46.154,347.179 47.097 M361.442 47.093 C 362.039 47.691,361.980 49.843,361.352 50.351 C 359.797 51.611,358.061 49.311,359.080 47.340 C 359.505 46.518,360.737 46.389,361.442 47.093 M376.833 47.038 C 377.930 48.216,377.260 50.667,375.841 50.667 C 374.674 50.667,374.008 49.597,374.258 48.121 C 374.485 46.774,375.996 46.139,376.833 47.038 M176.365 48.375 L 176.417 49.083 178.417 49.083 L 180.417 49.083 180.468 48.375 L 180.519 47.667 178.417 47.667 L 176.314 47.667 176.365 48.375 M216.905 49.429 C 217.664 50.188,217.014 50.833,215.488 50.833 L 214.333 50.833 214.333 50.000 L 214.333 49.167 215.488 49.167 C 216.316 49.167,216.717 49.241,216.905 49.429 " stroke="none" fill="#fcfcfc" fill-rule="evenodd"></path><path id="path1" d="M51.048 4.256 C 32.396 6.655,22.626 27.910,33.022 43.472 C 44.789 61.087,71.838 57.484,78.480 37.417 C 84.338 19.719,69.575 1.873,51.048 4.256 M57.917 16.066 C 66.508 18.437,70.683 28.164,66.475 36.000 C 60.658 46.831,44.637 45.207,40.997 33.417 C 37.844 23.203,47.584 13.214,57.917 16.066 " stroke="none" fill="#04acec" fill-rule="evenodd"></path><path id="path2" d="" stroke="none" fill="#100d4f4" fill-rule="evenodd"></path><path id="path3" d="" stroke="none" fill="#100d4f4" fill-rule="evenodd"></path><path id="path4" d="" stroke="none" fill="#100d4f4" fill-rule="evenodd"></path></g></svg>